PathFileType	4	(X/Y/Z)	D:\Long Term Storage\D'Arcy Smith\Coord16.trc
DataRate	CameraRate	NumFrames	NumMarkers	Units	OrigDataRate	OrigDataStartFrame	OrigNumFrames
120.00	120.00	      150	4	mm	120.00	606	      4844
Frame#	Time	M1			M2			M3			M4			
		X1	Y1	Z1	X2	Y2	Z2	X3	Y3	Z3	X4	Y4	Z4	

606	5.042	1058.07678	355.04141	227.04771	1537.59033	285.73093	535.43628							
607	5.050	1058.35315	359.78235	219.43341	1535.31653	291.00128	545.20520							
608	5.058	1058.75842	364.78214	212.08788	1533.32275	295.67160	553.85101							
609	5.067	1058.99329	369.58270	205.08595	1531.73914	300.60782	561.92096							
610	5.075	1059.19421	374.51080	198.52693	1530.71765	305.39264	569.18158							
611	5.083	1059.35974	379.28806	192.23145	1530.24695	310.05591	575.71802							
612	5.092	1059.70386	384.00635	186.30821	1529.86462	314.22070	581.33478							
613	5.100	1059.96765	388.59747	180.71956	1530.74194	315.64700	582.57080							
614	5.108	1060.19324	392.92661	175.63496	1533.59155	313.63855	579.96356							
615	5.117	1060.44617	397.14929	170.95474	1537.31213	311.78354	577.21576							
616	5.125	1060.81274	400.98761	166.49791	1540.98779	309.08743	573.19244							
617	5.133	1060.95215	404.66891	162.66484	1544.94617	305.87274	568.21808							
618	5.142	1061.12231	407.95526	159.06439	1549.64746	303.23215	562.59875							
619	5.150	1061.25586	411.14731	155.78279	1553.74585	300.06790	557.00415							
620	5.158	1061.41870	413.82883	153.03833	1558.22583	296.89377	550.81488							
621	5.167	1061.70911	416.24088	150.37108	1562.88354	293.72501	544.05530							
622	5.175	1061.99536	418.28177	148.21622	1567.80591	290.29965	536.68774							
623	5.183	1062.27368	420.08737	146.41531	1572.32312	287.34171	528.76349							
624	5.192	1062.44312	421.38464	145.01544	1576.65540	284.36890	519.81390							
625	5.200	1062.59705	422.35138	143.87044	1581.29468	281.86566	510.94543							
626	5.208	1062.82764	423.03680	143.15125	1585.47949	279.26065	500.52151							
627	5.217	1063.04736	423.54086	142.79268	1589.78308	276.78394	490.13364							
628	5.225	1063.26685	423.75171	142.86142	1593.92847	274.54959	479.51544							
629	5.233	1063.44934	423.53928	143.37267	1598.54688	273.81366	468.05273							
630	5.242	1063.60547	422.90491	144.25867	1602.80481	272.65619	456.65002							
631	5.250	1063.67041	421.85904	145.51335	1606.87622	271.64703	444.89178							
632	5.258	1063.60986	420.37100	147.04306	1610.77673	271.26920	432.58456							
633	5.267	1063.59680	418.40094	148.87334	1614.28259	270.82428	420.10056							
634	5.275	1063.41382	415.91318	150.99593	1617.98303	271.51178	407.15707							
635	5.283	1063.03662	413.10828	153.57507	1621.18945	272.13367	394.03256							
636	5.292	1062.53333	409.77133	156.42065	1624.20642	273.60379	380.97360							
637	5.300	1062.13550	406.34061	159.66261	1627.06287	275.08191	367.74167							
638	5.308	1061.52283	402.39005	163.18658	1629.76599	277.45438	354.77130							
639	5.317	1060.96619	398.36707	167.20602	1631.80811	278.91684	341.28333							
640	5.325	1059.95190	393.74069	171.71748	1634.61865	281.25601	328.45880							
641	5.333	1059.23352	388.92114	176.56790	1636.61194	284.38083	315.57156							
642	5.342	1058.52502	383.81052	182.38449	1638.39355	287.48981	302.98434							
643	5.350	1057.33081	378.43100	188.33081	1640.08276	291.02695	290.51923							
644	5.358	1055.67590	372.67975	194.05626	1641.74023	294.39835	278.48154							
645	5.367	1054.75037	366.93344	201.11363	1643.38611	298.08005	266.77618							
646	5.375	1053.55237	361.22787	208.31790	1645.38806	301.97406	255.81573							
647	5.383	1052.11035	354.96542	215.61934	1646.40063	305.44403	244.64856							
648	5.392	1050.80701	349.07208	223.55531	1647.77881	309.25815	233.90988							
649	5.400	1049.04028	342.84549	231.85144	1649.11560	313.10233	224.38385							
650	5.408	1047.58130	337.05328	240.58063	1650.45801	317.06836	214.28026							
651	5.417	1046.25232	331.44711	249.09735	1651.36255	321.08145	204.76360							
652	5.425	1045.04187	325.95706	258.84344	1652.27332	324.65829	195.81821							
653	5.433	1044.11987	321.00140	268.16861	1653.71606	327.87012	187.61032							
654	5.442	1042.90234	316.28793	277.90930	1654.62683	331.04926	179.61203							
655	5.450	1041.63843	311.77356	287.82187	1655.98010	334.29626	171.79213							
656	5.458	1040.21973	307.71774	298.79312	1656.54932	336.83994	164.75572							
657	5.467	1039.22803	303.92050	309.19589	1657.22021	339.28363	157.99799							
658	5.475	1038.19641	300.52884	319.57959	1657.44702	341.80014	150.92171							
659	5.483	1037.50146	297.54456	329.88303	1657.69092	343.99155	144.64354							
660	5.492	1036.76953	294.98425	340.12970	1657.82263	345.69617	138.75999							
661	5.500	1035.36853	292.97995	349.79010	1657.31995	347.39044	133.58067							
662	5.508	1033.37585	289.67090	363.71222	1657.00928	348.70795	128.94873							
663	5.517	1033.22888	288.67023	372.26334	1656.58105	349.56134	124.87217							
664	5.525	1031.94568	287.64731	382.34525	1656.05750	350.08215	121.19574							
665	5.533	1031.18567	286.80090	391.55035	1655.25391	350.30869	118.31067							
666	5.542	1030.62671	286.27649	400.45752	1654.25256	350.33832	115.78190							
667	5.550	1030.00439	286.07367	408.75125	1653.23462	349.86844	113.68578							
668	5.558	1029.28711	285.87830	417.02936	1652.66467	349.23581	112.73897							
669	5.567	1028.50208	285.87497	424.93552	1651.63245	348.05008	112.12621							
670	5.575	1027.66296	286.01480	431.32159	1650.91663	346.38727	112.65856							
671	5.583	1026.70435	286.19666	437.08722	1650.12427	344.86407	113.62717							
672	5.592	1026.32520	286.47961	443.35284	1649.07031	343.02917	115.57536							
673	5.600	1024.99731	286.56931	449.94006	1648.23376	341.13202	118.21566							
674	5.608	1024.12451	286.77051	454.45331	1646.51318	339.23270	121.39951							
675	5.617	1023.47180	287.01062	458.26620	1646.25623	336.69733	125.58986							
676	5.625	1021.99878	287.05695	463.16125	1644.81995	333.85840	130.28085							
677	5.633	1021.35431	286.95178	465.43338	1643.88037	331.19772	135.69237							
678	5.642	1020.22711	286.93167	468.18616	1643.12256	327.90646	141.58693							
679	5.650	1019.31873	286.72995	469.76086	1642.55615	324.70175	148.31064							
680	5.658	1018.21655	286.50116	471.40482	1641.73145	321.45917	155.31349							
681	5.667	1017.04913	285.91251	472.49554	1642.42432	318.04727	162.42697							
682	5.675	1015.68988	285.37573	473.34628	1641.93494	314.53671	169.77737							
683	5.683	1014.70135	284.65717	473.28409	1641.10071	310.91254	176.89825							
684	5.692	1013.77924	283.76886	472.57800	1640.41150	306.93582	184.17200							
685	5.700	1012.84265	282.94839	471.01263	1639.20410	303.66214	191.28659							
686	5.708	1011.90198	282.19632	469.10376	1637.66235	300.01468	197.77950							
687	5.717	1011.19647	281.58707	467.06827	1636.06018	296.44424	204.29218							
688	5.725	1010.72668	281.12418	463.40640	1634.45374	292.73792	210.31477							
689	5.733	1009.81372	279.95282	460.54633	1632.76343	288.92279	216.35455							
690	5.742	1009.47876	279.33975	456.47556	1631.25549	285.38165	222.23511							
691	5.750	1009.61804	278.93365	450.83173	1629.64380	281.95230	227.50685							
692	5.758	1009.02344	278.69284	446.88339	1627.94470	278.44998	233.48796							
693	5.767	1008.80914	278.53665	441.33972	1626.13879	275.26962	239.09921							
694	5.775	1008.90735	278.53992	435.61697	1625.26892	271.80331	244.54529							
695	5.783	1009.02991	278.97021	429.14130	1623.56445	268.27859	250.67059							
696	5.792	1009.34967	279.21088	422.29630	1621.69031	264.94583	256.92017							
697	5.800	1010.18616	280.06586	413.63513	1619.80786	261.87048	263.80225							
698	5.808	1010.35345	281.07382	407.13773	1617.72400	259.02026	270.99374							
699	5.817	1010.80359	282.10861	398.61652	1615.37402	256.38467	278.69113							
700	5.825	1011.92737	283.54422	388.79932	1613.37708	253.93593	287.12012							
701	5.833	1012.30658	285.23309	380.83020	1610.61035	252.04149	295.79715							
702	5.842	1013.10706	287.06064	371.38550	1607.06775	250.25549	304.97903							
703	5.850	1014.14337	289.16049	361.77551	1603.63184	249.05780	314.52335							
704	5.858	1015.10913	291.54050	351.95816	1599.99121	247.91083	324.44720							
705	5.867	1016.47864	294.67926	340.06708	1596.47217	247.25125	334.43463							
706	5.875	1017.62048	298.37335	328.58353	1593.07678	247.22287	344.74875							
707	5.883	1018.48450	301.61075	318.89285	1589.46362	246.95857	354.76611							
708	5.892	1020.12506	305.02475	308.24738	1585.77930	247.01825	365.14667							
709	5.900	1021.32935	308.49933	298.57553	1582.13879	247.24440	375.50897							
710	5.908	1022.20703	311.65759	289.12354	1577.73193	247.75473	386.20471							
711	5.917	1023.85443	316.80542	278.18884	1573.32275	248.21126	396.36295							
712	5.925	1025.04236	320.86484	268.62988	1569.74500	249.21643	406.00986							
713	5.933	1026.55212	325.15842	259.66058	1565.77759	250.34384	415.68289							
714	5.942	1027.46130	329.55981	250.18732	1561.38330	251.96332	424.04294							
715	5.950	1028.65625	334.01819	241.39032	1557.67444	253.55518	432.91052							
716	5.958	1030.23218	338.43469	233.38069	1553.63928	255.25633	441.21185							
717	5.967	1031.06885	343.11157	224.88248	1549.87805	257.39532	449.13980							
718	5.975	1032.54382	347.46527	217.71266	1546.44312	259.39066	456.23651							
719	5.983	1033.57629	351.98563	210.18547	1543.09949	262.44351	462.96570							
720	5.992	1035.05823	356.12799	203.94067	1540.36169	264.62573	469.42435							
721	6.000	1036.10168	360.22903	197.41493	1537.13867	266.32150	476.56097							
722	6.008	1037.70105	364.20627	192.08911	1535.39026	267.88309	481.53958							
723	6.017	1038.68762	368.11139	186.77960	1533.71387	270.50818	486.21310							
724	6.025	1039.42712	371.81369	181.61694	1531.90503	272.40179	489.94507							
725	6.033	1041.06274	375.08206	177.79773	1530.31274	274.11847	492.81024							
726	6.042	1042.03003	378.16385	174.01865	1529.30518	276.08105	495.15540							
727	6.050	1043.14478	380.83371	170.65762	1526.73132	277.03403	496.17645							
728	6.058	1044.22314	382.98767	168.00587	1525.88086	278.15271	496.41663							
729	6.067	1045.17371	384.95718	165.85826	1525.39001	279.16293	495.97559							
730	6.075	1046.06311	386.34521	164.41373	1525.30078	279.86115	494.79385							
731	6.083	1047.14038	387.33142	163.28751	1525.75110	280.50067	492.58618							
732	6.092	1048.25549	387.94135	162.75287	1525.72595	280.30380	489.33569							
733	6.100	1049.07324	388.06799	163.06120	1526.62683	280.47266	485.27872							
734	6.108	1049.52502	387.78491	163.15741	1527.36462	280.40878	479.83771							
735	6.117	1050.72107	386.95822	164.62621	1528.93152	280.54227	474.19611							
736	6.125	1051.51123	385.75436	166.13814	1529.42505	279.25745	465.00659							
737	6.133	1052.49402	383.89575	167.96481	1531.39844	278.38293	457.61429							
738	6.142	1052.75427	381.78052	170.03880	1533.19763	277.15103	448.64639							
739	6.150	1053.59900	379.08505	173.44757	1535.27063	275.75879	438.67456							
740	6.158	1054.16919	376.23431	177.04617	1537.62634	274.53265	427.92450							
741	6.167	1054.63379	372.73349	180.78859	1539.60034	272.79993	415.55487							
742	6.175	1055.15222	369.04520	185.11098	1542.55066	272.12558	403.59409							
743	6.183	1055.50830	364.86169	189.93533	1546.13879	271.92114	391.47955							
744	6.192	1055.89355	360.41415	195.04002	1550.37183	271.47369	377.70016							
745	6.200	1056.19336	355.65018	200.57932	1551.39868	272.12442	364.82578							
746	6.208	1056.48120	350.53610	206.65466	1556.62622	272.78882	351.00391							
747	6.217	1056.81494	345.41510	213.06119	1560.82874	273.68497	337.46118							
748	6.225	1056.93970	340.10977	220.14265	1565.52112	274.59586	323.34668							
749	6.233	1057.35083	334.99338	227.39909	1569.26318	277.48590	309.45749							
750	6.242	1057.51440	329.88181	235.21982	1573.26270	280.36285	295.76013							
751	6.250	1057.93188	324.97644	243.45207	1578.07898	284.46454	282.24713							
752	6.258	1057.44775	320.03430	252.20403	1581.97693	287.80054	269.55652							
753	6.267	1059.12000	315.77460	260.78513	1585.08911	291.68149	256.06943							
754	6.275	1059.09888	310.71783	270.30072	1589.70801	297.10458	243.92052							
755	6.283	1059.63635	307.05777	279.65247	1592.31030	302.69370	231.59044							
